<?xml version="1.0" encoding="UTF-8" standalone="no"?>
<!DOCTYPE svg PUBLIC "-//W3C//DTD SVG 1.1//EN"
 "http://www.w3.org/Graphics/SVG/1.1/DTD/svg11.dtd">
<!-- Generated by graphviz version 2.38.0 (20140413.2041)
 -->
<!-- Title: %3 Pages: 1 -->
<svg width="367pt" height="764pt"
 viewBox="0.00 0.00 367.00 764.00" xmlns="http://www.w3.org/2000/svg" xmlns:xlink="http://www.w3.org/1999/xlink">
<g id="graph0" class="graph" transform="scale(1 1) rotate(0) translate(145.769 287.846)">
<title>%3</title>
<polygon fill="white" stroke="none" points="-145.769,476.154 -145.769,-287.846 221.231,-287.846 221.231,476.154 -145.769,476.154"/>
<!-- 0 -->
<g id="node1" class="node"><title>0</title>
<polygon fill="#1eb3c5" stroke="black" points="-83.7692,-283.846 -133.769,-283.846 -137.769,-279.846 -137.769,-247.846 -87.7692,-247.846 -83.7692,-251.846 -83.7692,-283.846"/>
<polyline fill="none" stroke="black" points="-87.7692,-279.846 -137.769,-279.846 "/>
<polyline fill="none" stroke="black" points="-87.7692,-279.846 -87.7692,-247.846 "/>
<polyline fill="none" stroke="black" points="-87.7692,-279.846 -83.7692,-283.846 "/>
<text text-anchor="middle" x="-110.769" y="-262.146" font-family="Times New Roman,serif" font-size="14.00">0</text>
</g>
<!-- 2015 -->
<g id="node2" class="node"><title>2015</title>
<polygon fill="#1ec59e" stroke="black" points="-11.7692,-283.846 -61.7692,-283.846 -65.7692,-279.846 -65.7692,-247.846 -15.7692,-247.846 -11.7692,-251.846 -11.7692,-283.846"/>
<polyline fill="none" stroke="black" points="-15.7692,-279.846 -65.7692,-279.846 "/>
<polyline fill="none" stroke="black" points="-15.7692,-279.846 -15.7692,-247.846 "/>
<polyline fill="none" stroke="black" points="-15.7692,-279.846 -11.7692,-283.846 "/>
<text text-anchor="middle" x="-38.7692" y="-262.146" font-family="Times New Roman,serif" font-size="14.00">2015</text>
</g>
<!-- 0&#45;&gt;2015 -->
<g id="edge1" class="edge"><title>0&#45;&gt;2015</title>
<path fill="none" stroke="black" d="M-83.5491,-272.414C-81.1299,-272.516 -78.6543,-272.575 -76.1699,-272.592"/>
<polygon fill="black" stroke="black" points="-75.9657,-276.089 -66.0278,-272.416 -76.0869,-269.09 -75.9657,-276.089"/>
</g>
<!-- Marzo -->
<g id="node3" class="node"><title>Marzo</title>
<polygon fill="#1ec59e" stroke="black" points="-83.7692,-67.8462 -133.769,-67.8462 -137.769,-63.8462 -137.769,-31.8462 -87.7692,-31.8462 -83.7692,-35.8462 -83.7692,-67.8462"/>
<polyline fill="none" stroke="black" points="-87.7692,-63.8462 -137.769,-63.8462 "/>
<polyline fill="none" stroke="black" points="-87.7692,-63.8462 -87.7692,-31.8462 "/>
<polyline fill="none" stroke="black" points="-87.7692,-63.8462 -83.7692,-67.8462 "/>
<text text-anchor="middle" x="-110.769" y="-46.1462" font-family="Times New Roman,serif" font-size="14.00">Marzo</text>
</g>
<!-- 0&#45;&gt;Marzo -->
<g id="edge2" class="edge"><title>0&#45;&gt;Marzo</title>
<path fill="none" stroke="black" d="M-106.823,-247.802C-103.365,-210.161 -103.106,-123.033 -106.045,-77.9707"/>
<polygon fill="black" stroke="black" points="-102.556,-77.6928 -106.814,-67.9912 -109.536,-78.2305 -102.556,-77.6928"/>
</g>
<!-- 2015&#45;&gt;0 -->
<g id="edge14" class="edge"><title>2015&#45;&gt;0</title>
<path fill="none" stroke="black" d="M-65.9893,-259.278C-68.4086,-259.176 -70.8841,-259.117 -73.3686,-259.101"/>
<polygon fill="black" stroke="black" points="-73.5727,-255.604 -83.5106,-259.276 -73.4515,-262.603 -73.5727,-255.604"/>
</g>
<!-- Mansion -->
<g id="node4" class="node"><title>Mansion</title>
<polygon fill="#f1f116" stroke="black" points="-6.26923,-67.8462 -67.2692,-67.8462 -71.2692,-63.8462 -71.2692,-31.8462 -10.2692,-31.8462 -6.26923,-35.8462 -6.26923,-67.8462"/>
<polyline fill="none" stroke="black" points="-10.2692,-63.8462 -71.2692,-63.8462 "/>
<polyline fill="none" stroke="black" points="-10.2692,-63.8462 -10.2692,-31.8462 "/>
<polyline fill="none" stroke="black" points="-10.2692,-63.8462 -6.26923,-67.8462 "/>
<text text-anchor="middle" x="-38.7692" y="-46.1462" font-family="Times New Roman,serif" font-size="14.00">Mansion</text>
</g>
<!-- 2015&#45;&gt;Mansion -->
<g id="edge16" class="edge"><title>2015&#45;&gt;Mansion</title>
<path fill="none" stroke="black" d="M-34.8233,-247.802C-31.3649,-210.161 -31.1056,-123.033 -34.0454,-77.9707"/>
<polygon fill="black" stroke="black" points="-30.5563,-77.6928 -34.8141,-67.9912 -37.5356,-78.2305 -30.5563,-77.6928"/>
</g>
<!-- 2016 -->
<g id="node11" class="node"><title>2016</title>
<polygon fill="#1ec59e" stroke="black" points="60.2308,-283.846 10.2308,-283.846 6.23077,-279.846 6.23077,-247.846 56.2308,-247.846 60.2308,-251.846 60.2308,-283.846"/>
<polyline fill="none" stroke="black" points="56.2308,-279.846 6.23077,-279.846 "/>
<polyline fill="none" stroke="black" points="56.2308,-279.846 56.2308,-247.846 "/>
<polyline fill="none" stroke="black" points="56.2308,-279.846 60.2308,-283.846 "/>
<text text-anchor="middle" x="33.2308" y="-262.146" font-family="Times New Roman,serif" font-size="14.00">2016</text>
</g>
<!-- 2015&#45;&gt;2016 -->
<g id="edge15" class="edge"><title>2015&#45;&gt;2016</title>
<path fill="none" stroke="black" d="M-11.5491,-272.414C-9.1299,-272.516 -6.65434,-272.575 -4.16988,-272.592"/>
<polygon fill="black" stroke="black" points="-3.96574,-276.089 5.97216,-272.416 -4.08694,-269.09 -3.96574,-276.089"/>
</g>
<!-- Marzo&#45;&gt;0 -->
<g id="edge3" class="edge"><title>Marzo&#45;&gt;0</title>
<path fill="none" stroke="black" d="M-114.715,-67.8907C-118.174,-105.532 -118.433,-192.659 -115.493,-237.722"/>
<polygon fill="black" stroke="black" points="-118.982,-237.999 -114.724,-247.701 -112.003,-237.462 -118.982,-237.999"/>
</g>
<!-- Marzo&#45;&gt;Mansion -->
<g id="edge4" class="edge"><title>Marzo&#45;&gt;Mansion</title>
<path fill="none" stroke="black" d="M-83.5491,-56.4145C-82.9269,-56.4407 -82.3009,-56.4641 -81.6721,-56.4846"/>
<polygon fill="black" stroke="black" points="-81.3843,-59.987 -71.356,-56.5691 -81.3269,-52.9872 -81.3843,-59.987"/>
</g>
<!-- Abril -->
<g id="node5" class="node"><title>Abril</title>
<polygon fill="#1ec59e" stroke="black" points="-83.7692,4.15385 -133.769,4.15385 -137.769,8.15385 -137.769,40.1538 -87.7692,40.1538 -83.7692,36.1538 -83.7692,4.15385"/>
<polyline fill="none" stroke="black" points="-87.7692,8.15385 -137.769,8.15385 "/>
<polyline fill="none" stroke="black" points="-87.7692,8.15385 -87.7692,40.1538 "/>
<polyline fill="none" stroke="black" points="-87.7692,8.15385 -83.7692,4.15385 "/>
<text text-anchor="middle" x="-110.769" y="25.8538" font-family="Times New Roman,serif" font-size="14.00">Abril</text>
</g>
<!-- Marzo&#45;&gt;Abril -->
<g id="edge5" class="edge"><title>Marzo&#45;&gt;Abril</title>
<path fill="none" stroke="black" d="M-104.817,-31.6775C-104.066,-23.9771 -103.846,-14.8205 -104.154,-6.26279"/>
<polygon fill="black" stroke="black" points="-100.663,-6.01589 -104.793,3.74058 -107.648,-6.46226 -100.663,-6.01589"/>
</g>
<!-- Mansion&#45;&gt;2015 -->
<g id="edge17" class="edge"><title>Mansion&#45;&gt;2015</title>
<path fill="none" stroke="black" d="M-42.7151,-67.8907C-46.1736,-105.532 -46.4329,-192.659 -43.4931,-237.722"/>
<polygon fill="black" stroke="black" points="-46.9822,-237.999 -42.7244,-247.701 -40.0028,-237.462 -46.9822,-237.999"/>
</g>
<!-- Mansion&#45;&gt;Marzo -->
<g id="edge18" class="edge"><title>Mansion&#45;&gt;Marzo</title>
<path fill="none" stroke="black" d="M-71.3986,-43.1225C-72.0265,-43.1127 -72.6558,-43.1056 -73.2856,-43.1013"/>
<polygon fill="black" stroke="black" points="-73.4814,-39.604 -83.4208,-43.2725 -73.3631,-46.603 -73.4814,-39.604"/>
</g>
<!-- Abril&#45;&gt;Marzo -->
<g id="edge6" class="edge"><title>Abril&#45;&gt;Marzo</title>
<path fill="none" stroke="black" d="M-116.722,3.98521C-117.472,-3.7152 -117.693,-12.8718 -117.384,-21.4295"/>
<polygon fill="black" stroke="black" points="-120.876,-21.6764 -116.745,-31.4329 -113.89,-21.2301 -120.876,-21.6764"/>
</g>
<!-- Therapy Session -->
<g id="node6" class="node"><title>Therapy Session</title>
<polygon fill="#f1f116" stroke="black" points="88.2308,4.15385 -17.7692,4.15385 -21.7692,8.15385 -21.7692,40.1538 84.2308,40.1538 88.2308,36.1538 88.2308,4.15385"/>
<polyline fill="none" stroke="black" points="84.2308,8.15385 -21.7692,8.15385 "/>
<polyline fill="none" stroke="black" points="84.2308,8.15385 84.2308,40.1538 "/>
<polyline fill="none" stroke="black" points="84.2308,8.15385 88.2308,4.15385 "/>
<text text-anchor="middle" x="33.2308" y="25.8538" font-family="Times New Roman,serif" font-size="14.00">Therapy Session</text>
</g>
<!-- Abril&#45;&gt;Therapy Session -->
<g id="edge7" class="edge"><title>Abril&#45;&gt;Therapy Session</title>
<path fill="none" stroke="black" d="M-83.6839,16.7424C-69.042,15.7258 -50.274,15.2882 -32.0806,15.4298"/>
<polygon fill="black" stroke="black" points="-32.0128,11.9303 -22.0621,15.568 -32.1095,18.9296 -32.0128,11.9303"/>
</g>
<!-- Julio -->
<g id="node7" class="node"><title>Julio</title>
<polygon fill="#1ec59e" stroke="black" points="-83.7692,220.154 -133.769,220.154 -137.769,224.154 -137.769,256.154 -87.7692,256.154 -83.7692,252.154 -83.7692,220.154"/>
<polyline fill="none" stroke="black" points="-87.7692,224.154 -137.769,224.154 "/>
<polyline fill="none" stroke="black" points="-87.7692,224.154 -87.7692,256.154 "/>
<polyline fill="none" stroke="black" points="-87.7692,224.154 -83.7692,220.154 "/>
<text text-anchor="middle" x="-110.769" y="241.854" font-family="Times New Roman,serif" font-size="14.00">Julio</text>
</g>
<!-- Abril&#45;&gt;Julio -->
<g id="edge8" class="edge"><title>Abril&#45;&gt;Julio</title>
<path fill="none" stroke="black" d="M-106.823,40.1984C-103.365,77.8395 -103.106,164.967 -106.045,210.029"/>
<polygon fill="black" stroke="black" points="-102.556,210.307 -106.814,220.009 -109.536,209.769 -102.556,210.307"/>
</g>
<!-- Therapy Session&#45;&gt;Abril -->
<g id="edge23" class="edge"><title>Therapy Session&#45;&gt;Abril</title>
<path fill="none" stroke="black" d="M-22.0316,28.7391C-39.1733,29.0822 -57.655,28.8894 -73.291,28.1606"/>
<polygon fill="black" stroke="black" points="-73.8261,31.6358 -83.6099,27.5704 -73.4263,24.6472 -73.8261,31.6358"/>
</g>
<!-- Therapy Session&#45;&gt;2016 -->
<g id="edge22" class="edge"><title>Therapy Session&#45;&gt;2016</title>
<path fill="none" stroke="black" d="M29.7441,4.13816C25.6478,-44.5522 25.4079,-179.05 29.0246,-237.789"/>
<polygon fill="black" stroke="black" points="25.5387,-238.113 29.7447,-247.837 32.5208,-237.613 25.5387,-238.113"/>
</g>
<!-- Julio&#45;&gt;Abril -->
<g id="edge9" class="edge"><title>Julio&#45;&gt;Abril</title>
<path fill="none" stroke="black" d="M-114.715,220.109C-118.174,182.468 -118.433,95.3405 -115.493,50.2784"/>
<polygon fill="black" stroke="black" points="-118.982,50.0005 -114.724,40.2989 -112.003,50.5382 -118.982,50.0005"/>
</g>
<!-- The Search -->
<g id="node8" class="node"><title>The Search</title>
<polygon fill="#f1f116" stroke="black" points="217.231,220.154 141.231,220.154 137.231,224.154 137.231,256.154 213.231,256.154 217.231,252.154 217.231,220.154"/>
<polyline fill="none" stroke="black" points="213.231,224.154 137.231,224.154 "/>
<polyline fill="none" stroke="black" points="213.231,224.154 213.231,256.154 "/>
<polyline fill="none" stroke="black" points="213.231,224.154 217.231,220.154 "/>
<text text-anchor="middle" x="177.231" y="241.854" font-family="Times New Roman,serif" font-size="14.00">The Search</text>
</g>
<!-- Julio&#45;&gt;The Search -->
<g id="edge10" class="edge"><title>Julio&#45;&gt;The Search</title>
<path fill="none" stroke="black" d="M-83.6749,234.008C-35.4926,230.963 65.7683,230.588 127.002,232.885"/>
<polygon fill="black" stroke="black" points="127.364,229.397 137.209,233.31 127.072,236.391 127.364,229.397"/>
</g>
<!-- Octubre -->
<g id="node9" class="node"><title>Octubre</title>
<polygon fill="#1ec59e" stroke="black" points="-79.7692,436.154 -137.769,436.154 -141.769,440.154 -141.769,472.154 -83.7692,472.154 -79.7692,468.154 -79.7692,436.154"/>
<polyline fill="none" stroke="black" points="-83.7692,440.154 -141.769,440.154 "/>
<polyline fill="none" stroke="black" points="-83.7692,440.154 -83.7692,472.154 "/>
<polyline fill="none" stroke="black" points="-83.7692,440.154 -79.7692,436.154 "/>
<text text-anchor="middle" x="-110.769" y="457.854" font-family="Times New Roman,serif" font-size="14.00">Octubre</text>
</g>
<!-- Julio&#45;&gt;Octubre -->
<g id="edge11" class="edge"><title>Julio&#45;&gt;Octubre</title>
<path fill="none" stroke="black" d="M-106.823,256.198C-103.365,293.839 -103.106,380.967 -106.045,426.029"/>
<polygon fill="black" stroke="black" points="-102.556,426.307 -106.814,436.009 -109.536,425.769 -102.556,426.307"/>
</g>
<!-- The Search&#45;&gt;Julio -->
<g id="edge32" class="edge"><title>The Search&#45;&gt;Julio</title>
<path fill="none" stroke="black" d="M137.186,242.999C81.3992,245.579 -18.9576,245.538 -73.3208,242.875"/>
<polygon fill="black" stroke="black" points="-73.7625,246.356 -83.5533,242.308 -73.3748,239.367 -73.7625,246.356"/>
</g>
<!-- 2019 -->
<g id="node13" class="node"><title>2019</title>
<polygon fill="#1ec59e" stroke="black" points="204.231,-283.846 154.231,-283.846 150.231,-279.846 150.231,-247.846 200.231,-247.846 204.231,-251.846 204.231,-283.846"/>
<polyline fill="none" stroke="black" points="200.231,-279.846 150.231,-279.846 "/>
<polyline fill="none" stroke="black" points="200.231,-279.846 200.231,-247.846 "/>
<polyline fill="none" stroke="black" points="200.231,-279.846 204.231,-283.846 "/>
<text text-anchor="middle" x="177.231" y="-262.146" font-family="Times New Roman,serif" font-size="14.00">2019</text>
</g>
<!-- The Search&#45;&gt;2019 -->
<g id="edge31" class="edge"><title>The Search&#45;&gt;2019</title>
<path fill="none" stroke="black" d="M174.498,219.918C169.35,144.284 169.15,-145.094 173.897,-237.385"/>
<polygon fill="black" stroke="black" points="170.418,-237.858 174.5,-247.635 177.406,-237.447 170.418,-237.858"/>
</g>
<!-- Octubre&#45;&gt;Julio -->
<g id="edge12" class="edge"><title>Octubre&#45;&gt;Julio</title>
<path fill="none" stroke="black" d="M-114.715,436.109C-118.174,398.468 -118.433,311.341 -115.493,266.278"/>
<polygon fill="black" stroke="black" points="-118.982,266.001 -114.724,256.299 -112.003,266.538 -118.982,266.001"/>
</g>
<!-- Perception -->
<g id="node10" class="node"><title>Perception</title>
<polygon fill="#f1f116" stroke="black" points="143.731,436.154 70.7308,436.154 66.7308,440.154 66.7308,472.154 139.731,472.154 143.731,468.154 143.731,436.154"/>
<polyline fill="none" stroke="black" points="139.731,440.154 66.7308,440.154 "/>
<polyline fill="none" stroke="black" points="139.731,440.154 139.731,472.154 "/>
<polyline fill="none" stroke="black" points="139.731,440.154 143.731,436.154 "/>
<text text-anchor="middle" x="105.231" y="457.854" font-family="Times New Roman,serif" font-size="14.00">Perception</text>
</g>
<!-- Octubre&#45;&gt;Perception -->
<g id="edge13" class="edge"><title>Octubre&#45;&gt;Perception</title>
<path fill="none" stroke="black" d="M-79.361,449.226C-43.7656,447.115 14.6994,446.838 56.2899,448.396"/>
<polygon fill="black" stroke="black" points="56.6346,444.907 66.476,448.831 56.3356,451.901 56.6346,444.907"/>
</g>
<!-- Perception&#45;&gt;Octubre -->
<g id="edge28" class="edge"><title>Perception&#45;&gt;Octubre</title>
<path fill="none" stroke="black" d="M66.6143,459.47C28.2954,461.339 -30.2318,461.381 -69.4638,459.596"/>
<polygon fill="black" stroke="black" points="-69.6864,463.09 -79.4908,459.074 -69.3223,456.099 -69.6864,463.09"/>
</g>
<!-- 2017 -->
<g id="node12" class="node"><title>2017</title>
<polygon fill="#1ec59e" stroke="black" points="132.231,-283.846 82.2308,-283.846 78.2308,-279.846 78.2308,-247.846 128.231,-247.846 132.231,-251.846 132.231,-283.846"/>
<polyline fill="none" stroke="black" points="128.231,-279.846 78.2308,-279.846 "/>
<polyline fill="none" stroke="black" points="128.231,-279.846 128.231,-247.846 "/>
<polyline fill="none" stroke="black" points="128.231,-279.846 132.231,-283.846 "/>
<text text-anchor="middle" x="105.231" y="-262.146" font-family="Times New Roman,serif" font-size="14.00">2017</text>
</g>
<!-- Perception&#45;&gt;2017 -->
<g id="edge27" class="edge"><title>Perception&#45;&gt;2017</title>
<path fill="none" stroke="black" d="M102.915,435.996C97.1806,338.92 97.0079,-118.824 102.397,-237.623"/>
<polygon fill="black" stroke="black" points="98.9084,-237.931 102.918,-247.737 105.899,-237.57 98.9084,-237.931"/>
</g>
<!-- 2016&#45;&gt;2015 -->
<g id="edge19" class="edge"><title>2016&#45;&gt;2015</title>
<path fill="none" stroke="black" d="M6.01066,-259.278C3.59144,-259.176 1.11588,-259.117 -1.36858,-259.101"/>
<polygon fill="black" stroke="black" points="-1.57272,-255.604 -11.5106,-259.276 -1.45153,-262.603 -1.57272,-255.604"/>
</g>
<!-- 2016&#45;&gt;Therapy Session -->
<g id="edge21" class="edge"><title>2016&#45;&gt;Therapy Session</title>
<path fill="none" stroke="black" d="M36.7174,-247.83C40.8138,-199.14 41.0536,-64.6423 37.437,-5.90346"/>
<polygon fill="black" stroke="black" points="40.9228,-5.57923 36.7168,4.14497 33.9407,-6.07967 40.9228,-5.57923"/>
</g>
<!-- 2016&#45;&gt;2017 -->
<g id="edge20" class="edge"><title>2016&#45;&gt;2017</title>
<path fill="none" stroke="black" d="M60.4509,-272.414C62.8701,-272.516 65.3457,-272.575 67.8301,-272.592"/>
<polygon fill="black" stroke="black" points="68.0343,-276.089 77.9722,-272.416 67.9131,-269.09 68.0343,-276.089"/>
</g>
<!-- 2017&#45;&gt;Perception -->
<g id="edge26" class="edge"><title>2017&#45;&gt;Perception</title>
<path fill="none" stroke="black" d="M107.546,-247.688C113.281,-150.612 113.454,307.132 108.064,425.931"/>
<polygon fill="black" stroke="black" points="111.553,426.238 107.543,436.045 104.562,425.878 111.553,426.238"/>
</g>
<!-- 2017&#45;&gt;2016 -->
<g id="edge24" class="edge"><title>2017&#45;&gt;2016</title>
<path fill="none" stroke="black" d="M78.0107,-259.278C75.5914,-259.176 73.1159,-259.117 70.6314,-259.101"/>
<polygon fill="black" stroke="black" points="70.4273,-255.604 60.4894,-259.276 70.5485,-262.603 70.4273,-255.604"/>
</g>
<!-- 2017&#45;&gt;2019 -->
<g id="edge25" class="edge"><title>2017&#45;&gt;2019</title>
<path fill="none" stroke="black" d="M132.451,-272.414C134.87,-272.516 137.346,-272.575 139.83,-272.592"/>
<polygon fill="black" stroke="black" points="140.034,-276.089 149.972,-272.416 139.913,-269.09 140.034,-276.089"/>
</g>
<!-- 2019&#45;&gt;The Search -->
<g id="edge30" class="edge"><title>2019&#45;&gt;The Search</title>
<path fill="none" stroke="black" d="M179.963,-247.611C185.111,-171.976 185.312,117.402 180.565,209.693"/>
<polygon fill="black" stroke="black" points="184.043,210.166 179.962,219.943 177.055,209.755 184.043,210.166"/>
</g>
<!-- 2019&#45;&gt;2017 -->
<g id="edge29" class="edge"><title>2019&#45;&gt;2017</title>
<path fill="none" stroke="black" d="M150.011,-259.278C147.591,-259.176 145.116,-259.117 142.631,-259.101"/>
<polygon fill="black" stroke="black" points="142.427,-255.604 132.489,-259.276 142.548,-262.603 142.427,-255.604"/>
</g>
</g>
</svg>
