<?xml version="1.0" encoding="UTF-8" standalone="no"?>
<!DOCTYPE svg PUBLIC "-//W3C//DTD SVG 1.1//EN"
 "http://www.w3.org/Graphics/SVG/1.1/DTD/svg11.dtd">
<!-- Generated by graphviz version 2.38.0 (20140413.2041)
 -->
<!-- Title: %3 Pages: 1 -->
<svg width="172pt" height="692pt"
 viewBox="0.00 0.00 172.00 692.00" xmlns="http://www.w3.org/2000/svg" xmlns:xlink="http://www.w3.org/1999/xlink">
<g id="graph0" class="graph" transform="scale(1 1) rotate(0) translate(80 346)">
<title>%3</title>
<polygon fill="white" stroke="none" points="-80,346 -80,-346 92,-346 92,346 -80,346"/>
<!-- 0 -->
<g id="node1" class="node"><title>0</title>
<polygon fill="#1eb3c5" stroke="black" points="-9,-342 -59,-342 -63,-338 -63,-306 -13,-306 -9,-310 -9,-342"/>
<polyline fill="none" stroke="black" points="-13,-338 -63,-338 "/>
<polyline fill="none" stroke="black" points="-13,-338 -13,-306 "/>
<polyline fill="none" stroke="black" points="-13,-338 -9,-342 "/>
<text text-anchor="middle" x="-36" y="-320.3" font-family="Times New Roman,serif" font-size="14.00">0</text>
</g>
<!-- 2019 -->
<g id="node2" class="node"><title>2019</title>
<polygon fill="#1ec59e" stroke="black" points="63,-342 13,-342 9,-338 9,-306 59,-306 63,-310 63,-342"/>
<polyline fill="none" stroke="black" points="59,-338 9,-338 "/>
<polyline fill="none" stroke="black" points="59,-338 59,-306 "/>
<polyline fill="none" stroke="black" points="59,-338 63,-342 "/>
<text text-anchor="middle" x="36" y="-320.3" font-family="Times New Roman,serif" font-size="14.00">2019</text>
</g>
<!-- 0&#45;&gt;2019 -->
<g id="edge1" class="edge"><title>0&#45;&gt;2019</title>
<path fill="none" stroke="black" d="M-8.77989,-330.568C-6.36067,-330.67 -3.88511,-330.729 -1.40065,-330.745"/>
<polygon fill="black" stroke="black" points="-1.19651,-334.243 8.7414,-330.57 -1.3177,-327.244 -1.19651,-334.243"/>
</g>
<!-- Septiembre -->
<g id="node3" class="node"><title>Septiembre</title>
<polygon fill="#1ec59e" stroke="black" points="4,306 -72,306 -76,310 -76,342 0,342 4,338 4,306"/>
<polyline fill="none" stroke="black" points="4.44089e-016,310 -76,310 "/>
<polyline fill="none" stroke="black" points="4.44089e-016,310 0,342 "/>
<polyline fill="none" stroke="black" points="4.44089e-016,310 4,306 "/>
<text text-anchor="middle" x="-36" y="327.7" font-family="Times New Roman,serif" font-size="14.00">Septiembre</text>
</g>
<!-- 0&#45;&gt;Septiembre -->
<g id="edge2" class="edge"><title>0&#45;&gt;Septiembre</title>
<path fill="none" stroke="black" d="M-33.5784,-305.992C-27.9976,-215.984 -27.8135,185.182 -33.0261,295.719"/>
<polygon fill="black" stroke="black" points="-29.5347,295.974 -33.5648,305.772 -36.5247,295.599 -29.5347,295.974"/>
</g>
<!-- 2019&#45;&gt;0 -->
<g id="edge5" class="edge"><title>2019&#45;&gt;0</title>
<path fill="none" stroke="black" d="M8.77989,-317.432C6.36067,-317.33 3.88511,-317.271 1.40065,-317.255"/>
<polygon fill="black" stroke="black" points="1.19651,-313.757 -8.7414,-317.43 1.3177,-320.756 1.19651,-313.757"/>
</g>
<!-- Shaped By Fire -->
<g id="node4" class="node"><title>Shaped By Fire</title>
<polygon fill="#f1f116" stroke="black" points="88,306 -12,306 -16,310 -16,342 84,342 88,338 88,306"/>
<polyline fill="none" stroke="black" points="84,310 -16,310 "/>
<polyline fill="none" stroke="black" points="84,310 84,342 "/>
<polyline fill="none" stroke="black" points="84,310 88,306 "/>
<text text-anchor="middle" x="36" y="327.7" font-family="Times New Roman,serif" font-size="14.00">Shaped By Fire</text>
</g>
<!-- 2019&#45;&gt;Shaped By Fire -->
<g id="edge6" class="edge"><title>2019&#45;&gt;Shaped By Fire</title>
<path fill="none" stroke="black" d="M38.4216,-305.992C44.0024,-215.984 44.1865,185.182 38.9739,295.719"/>
<polygon fill="black" stroke="black" points="42.4653,295.974 38.4352,305.772 35.4753,295.599 42.4653,295.974"/>
</g>
<!-- Septiembre&#45;&gt;0 -->
<g id="edge3" class="edge"><title>Septiembre&#45;&gt;0</title>
<path fill="none" stroke="black" d="M-38.4216,305.992C-44.0024,215.984 -44.1865,-185.182 -38.9739,-295.719"/>
<polygon fill="black" stroke="black" points="-42.4653,-295.974 -38.4352,-305.772 -35.4753,-295.599 -42.4653,-295.974"/>
</g>
<!-- Septiembre&#45;&gt;Shaped By Fire -->
<g id="edge4" class="edge"><title>Septiembre&#45;&gt;Shaped By Fire</title>
<path fill="none" stroke="black" d="M4.21017,317.291C4.27459,317.292 4.339,317.294 4.40338,317.295"/>
<polygon fill="black" stroke="black" points="-5.32595,313.585 4.59648,317.299 -5.47666,320.583 -5.32595,313.585"/>
</g>
<!-- Shaped By Fire&#45;&gt;2019 -->
<g id="edge7" class="edge"><title>Shaped By Fire&#45;&gt;2019</title>
<path fill="none" stroke="black" d="M33.5784,305.992C27.9976,215.984 27.8135,-185.182 33.0261,-295.719"/>
<polygon fill="black" stroke="black" points="29.5347,-295.974 33.5648,-305.772 36.5247,-295.599 29.5347,-295.974"/>
</g>
<!-- Shaped By Fire&#45;&gt;Septiembre -->
<g id="edge8" class="edge"><title>Shaped By Fire&#45;&gt;Septiembre</title>
<path fill="none" stroke="black" d="M-16.3257,330.091C-16.3693,330.087 -16.4129,330.083 -16.4564,330.079"/>
<polygon fill="black" stroke="black" points="-6.93438,334.438 -16.5869,330.068 -6.31627,327.464 -6.93438,334.438"/>
</g>
</g>
</svg>
