<?xml version="1.0" encoding="UTF-8" standalone="no"?>
<!DOCTYPE svg PUBLIC "-//W3C//DTD SVG 1.1//EN"
 "http://www.w3.org/Graphics/SVG/1.1/DTD/svg11.dtd">
<!-- Generated by graphviz version 2.38.0 (20140413.2041)
 -->
<!-- Title: %3 Pages: 1 -->
<svg width="286pt" height="548pt"
 viewBox="0.00 0.00 285.50 548.00" xmlns="http://www.w3.org/2000/svg" xmlns:xlink="http://www.w3.org/1999/xlink">
<g id="graph0" class="graph" transform="scale(1 1) rotate(0) translate(117.409 226.742)">
<title>%3</title>
<polygon fill="white" stroke="none" points="-117.409,321.258 -117.409,-226.742 168.091,-226.742 168.091,321.258 -117.409,321.258"/>
<!-- 0 -->
<g id="node1" class="node"><title>0</title>
<polygon fill="#1eb3c5" stroke="black" points="-59.409,-222.742 -109.409,-222.742 -113.409,-218.742 -113.409,-186.742 -63.409,-186.742 -59.409,-190.742 -59.409,-222.742"/>
<polyline fill="none" stroke="black" points="-63.409,-218.742 -113.409,-218.742 "/>
<polyline fill="none" stroke="black" points="-63.409,-218.742 -63.409,-186.742 "/>
<polyline fill="none" stroke="black" points="-63.409,-218.742 -59.409,-222.742 "/>
<text text-anchor="middle" x="-86.409" y="-201.042" font-family="Times New Roman,serif" font-size="14.00">0</text>
</g>
<!-- 2004 -->
<g id="node2" class="node"><title>2004</title>
<polygon fill="#1ec59e" stroke="black" points="12.591,-222.742 -37.409,-222.742 -41.409,-218.742 -41.409,-186.742 8.59099,-186.742 12.591,-190.742 12.591,-222.742"/>
<polyline fill="none" stroke="black" points="8.59099,-218.742 -41.409,-218.742 "/>
<polyline fill="none" stroke="black" points="8.59099,-218.742 8.59099,-186.742 "/>
<polyline fill="none" stroke="black" points="8.59099,-218.742 12.591,-222.742 "/>
<text text-anchor="middle" x="-14.409" y="-201.042" font-family="Times New Roman,serif" font-size="14.00">2004</text>
</g>
<!-- 0&#45;&gt;2004 -->
<g id="edge1" class="edge"><title>0&#45;&gt;2004</title>
<path fill="none" stroke="black" d="M-59.1889,-211.311C-56.7697,-211.412 -54.2941,-211.472 -51.8097,-211.488"/>
<polygon fill="black" stroke="black" points="-51.6055,-214.985 -41.6676,-211.312 -51.7267,-207.986 -51.6055,-214.985"/>
</g>
<!-- Abril -->
<g id="node3" class="node"><title>Abril</title>
<polygon fill="#1ec59e" stroke="black" points="-59.409,65.2578 -109.409,65.2578 -113.409,69.2578 -113.409,101.258 -63.409,101.258 -59.409,97.2578 -59.409,65.2578"/>
<polyline fill="none" stroke="black" points="-63.409,69.2578 -113.409,69.2578 "/>
<polyline fill="none" stroke="black" points="-63.409,69.2578 -63.409,101.258 "/>
<polyline fill="none" stroke="black" points="-63.409,69.2578 -59.409,65.2578 "/>
<text text-anchor="middle" x="-86.409" y="86.9578" font-family="Times New Roman,serif" font-size="14.00">Abril</text>
</g>
<!-- 0&#45;&gt;Abril -->
<g id="edge2" class="edge"><title>0&#45;&gt;Abril</title>
<path fill="none" stroke="black" d="M-82.9224,-186.726C-78.826,-138.036 -78.5861,-3.53833 -82.2028,55.2005"/>
<polygon fill="black" stroke="black" points="-78.717,55.5247 -82.9229,65.2489 -85.6991,55.0243 -78.717,55.5247"/>
</g>
<!-- 2004&#45;&gt;0 -->
<g id="edge8" class="edge"><title>2004&#45;&gt;0</title>
<path fill="none" stroke="black" d="M-41.6291,-198.174C-44.0483,-198.072 -46.5239,-198.013 -49.0084,-197.997"/>
<polygon fill="black" stroke="black" points="-49.2125,-194.5 -59.1504,-198.172 -49.0913,-201.499 -49.2125,-194.5"/>
</g>
<!-- They&#39;re Only Chasing Safety -->
<g id="node6" class="node"><title>They&#39;re Only Chasing Safety</title>
<polygon fill="#f1f116" stroke="black" points="74.091,281.258 -98.909,281.258 -102.909,285.258 -102.909,317.258 70.091,317.258 74.091,313.258 74.091,281.258"/>
<polyline fill="none" stroke="black" points="70.091,285.258 -102.909,285.258 "/>
<polyline fill="none" stroke="black" points="70.091,285.258 70.091,317.258 "/>
<polyline fill="none" stroke="black" points="70.091,285.258 74.091,281.258 "/>
<text text-anchor="middle" x="-14.409" y="302.958" font-family="Times New Roman,serif" font-size="14.00">They&#39;re Only Chasing Safety</text>
</g>
<!-- 2004&#45;&gt;They&#39;re Only Chasing Safety -->
<g id="edge10" class="edge"><title>2004&#45;&gt;They&#39;re Only Chasing Safety</title>
<path fill="none" stroke="black" d="M-11.6765,-186.507C-6.52855,-110.872 -6.32797,178.506 -11.0748,270.797"/>
<polygon fill="black" stroke="black" points="-7.5965,271.27 -11.6782,281.047 -14.5844,270.859 -7.5965,271.27"/>
</g>
<!-- 2012 -->
<g id="node7" class="node"><title>2012</title>
<polygon fill="#1ec59e" stroke="black" points="84.591,-222.742 34.591,-222.742 30.591,-218.742 30.591,-186.742 80.591,-186.742 84.591,-190.742 84.591,-222.742"/>
<polyline fill="none" stroke="black" points="80.591,-218.742 30.591,-218.742 "/>
<polyline fill="none" stroke="black" points="80.591,-218.742 80.591,-186.742 "/>
<polyline fill="none" stroke="black" points="80.591,-218.742 84.591,-222.742 "/>
<text text-anchor="middle" x="57.591" y="-201.042" font-family="Times New Roman,serif" font-size="14.00">2012</text>
</g>
<!-- 2004&#45;&gt;2012 -->
<g id="edge9" class="edge"><title>2004&#45;&gt;2012</title>
<path fill="none" stroke="black" d="M12.8111,-211.311C15.2303,-211.412 17.7059,-211.472 20.1903,-211.488"/>
<polygon fill="black" stroke="black" points="20.3945,-214.985 30.3324,-211.312 20.2733,-207.986 20.3945,-214.985"/>
</g>
<!-- Abril&#45;&gt;0 -->
<g id="edge3" class="edge"><title>Abril&#45;&gt;0</title>
<path fill="none" stroke="black" d="M-89.8957,65.2421C-93.992,16.5518 -94.2319,-117.946 -90.6152,-176.685"/>
<polygon fill="black" stroke="black" points="-94.101,-177.009 -89.8951,-186.733 -87.119,-176.509 -94.101,-177.009"/>
</g>
<!-- Erase Me -->
<g id="node4" class="node"><title>Erase Me</title>
<polygon fill="#f1f116" stroke="black" points="164.091,65.2578 99.091,65.2578 95.091,69.2578 95.091,101.258 160.091,101.258 164.091,97.2578 164.091,65.2578"/>
<polyline fill="none" stroke="black" points="160.091,69.2578 95.091,69.2578 "/>
<polyline fill="none" stroke="black" points="160.091,69.2578 160.091,101.258 "/>
<polyline fill="none" stroke="black" points="160.091,69.2578 164.091,65.2578 "/>
<text text-anchor="middle" x="129.591" y="86.9578" font-family="Times New Roman,serif" font-size="14.00">Erase Me</text>
</g>
<!-- Abril&#45;&gt;Erase Me -->
<g id="edge4" class="edge"><title>Abril&#45;&gt;Erase Me</title>
<path fill="none" stroke="black" d="M-59.0525,78.5846C-22.7946,76.1638 41.637,75.8593 84.982,77.6712"/>
<polygon fill="black" stroke="black" points="85.153,74.1753 94.9749,78.1478 84.8194,81.1673 85.153,74.1753"/>
</g>
<!-- Julio -->
<g id="node5" class="node"><title>Julio</title>
<polygon fill="#1ec59e" stroke="black" points="-59.409,281.258 -109.409,281.258 -113.409,285.258 -113.409,317.258 -63.409,317.258 -59.409,313.258 -59.409,281.258"/>
<polyline fill="none" stroke="black" points="-63.409,285.258 -113.409,285.258 "/>
<polyline fill="none" stroke="black" points="-63.409,285.258 -63.409,317.258 "/>
<polyline fill="none" stroke="black" points="-63.409,285.258 -59.409,281.258 "/>
<text text-anchor="middle" x="-86.409" y="302.958" font-family="Times New Roman,serif" font-size="14.00">Julio</text>
</g>
<!-- Abril&#45;&gt;Julio -->
<g id="edge5" class="edge"><title>Abril&#45;&gt;Julio</title>
<path fill="none" stroke="black" d="M-82.4631,101.302C-79.0046,138.943 -78.7453,226.071 -81.6851,271.133"/>
<polygon fill="black" stroke="black" points="-78.1961,271.411 -82.4539,281.113 -85.1754,270.873 -78.1961,271.411"/>
</g>
<!-- Erase Me&#45;&gt;Abril -->
<g id="edge22" class="edge"><title>Erase Me&#45;&gt;Abril</title>
<path fill="none" stroke="black" d="M94.8869,88.3726C55.3932,90.5103 -8.85976,90.552 -49.3192,88.4977"/>
<polygon fill="black" stroke="black" points="-49.5334,91.9913 -59.3121,87.9136 -49.1249,85.0032 -49.5334,91.9913"/>
</g>
<!-- 2018 -->
<g id="node9" class="node"><title>2018</title>
<polygon fill="#1ec59e" stroke="black" points="156.591,-222.742 106.591,-222.742 102.591,-218.742 102.591,-186.742 152.591,-186.742 156.591,-190.742 156.591,-222.742"/>
<polyline fill="none" stroke="black" points="152.591,-218.742 102.591,-218.742 "/>
<polyline fill="none" stroke="black" points="152.591,-218.742 152.591,-186.742 "/>
<polyline fill="none" stroke="black" points="152.591,-218.742 156.591,-222.742 "/>
<text text-anchor="middle" x="129.591" y="-201.042" font-family="Times New Roman,serif" font-size="14.00">2018</text>
</g>
<!-- Erase Me&#45;&gt;2018 -->
<g id="edge21" class="edge"><title>Erase Me&#45;&gt;2018</title>
<path fill="none" stroke="black" d="M126.104,65.2421C122.008,16.5518 121.768,-117.946 125.385,-176.685"/>
<polygon fill="black" stroke="black" points="121.899,-177.009 126.105,-186.733 128.881,-176.509 121.899,-177.009"/>
</g>
<!-- EraseUna -->
<g id="node10" class="node"><title>EraseUna</title>
<polygon fill="lightgrey" stroke="black" points="40.2008,-34.6331 -25.7992,-34.6331 -29.7992,-30.6331 -29.7992,1.36687 36.2008,1.36687 40.2008,-2.63313 40.2008,-34.6331"/>
<polyline fill="none" stroke="black" points="36.2008,-30.6331 -29.7992,-30.6331 "/>
<polyline fill="none" stroke="black" points="36.2008,-30.6331 36.2008,1.36687 "/>
<polyline fill="none" stroke="black" points="36.2008,-30.6331 40.2008,-34.6331 "/>
<text text-anchor="middle" x="5.20081" y="-12.9331" font-family="Times New Roman,serif" font-size="14.00">EraseUna</text>
</g>
<!-- Erase Me&#45;&gt;EraseUna -->
<g id="edge23" class="edge"><title>Erase Me&#45;&gt;EraseUna</title>
<path fill="none" stroke="black" d="M97.7578,65.0828C75.7295,49.1551 47.0244,26.0301 27.4206,8.3781"/>
<polygon fill="black" stroke="black" points="24.8592,10.7772 19.8772,1.42677 29.6028,5.6296 24.8592,10.7772"/>
</g>
<!-- Julio&#45;&gt;Abril -->
<g id="edge6" class="edge"><title>Julio&#45;&gt;Abril</title>
<path fill="none" stroke="black" d="M-90.3549,281.213C-93.8134,243.572 -94.0727,156.445 -91.1329,111.382"/>
<polygon fill="black" stroke="black" points="-94.6219,111.104 -90.3641,101.403 -87.6426,111.642 -94.6219,111.104"/>
</g>
<!-- Julio&#45;&gt;They&#39;re Only Chasing Safety -->
<g id="edge7" class="edge"><title>Julio&#45;&gt;They&#39;re Only Chasing Safety</title>
<path fill="none" stroke="black" d="M-59.1889,292.69C-59.1093,292.686 -59.0295,292.683 -58.9498,292.68"/>
<polygon fill="black" stroke="black" points="-68.8446,289.58 -58.7103,292.67 -68.5598,296.574 -68.8446,289.58"/>
</g>
<!-- They&#39;re Only Chasing Safety&#45;&gt;2004 -->
<g id="edge11" class="edge"><title>They&#39;re Only Chasing Safety&#45;&gt;2004</title>
<path fill="none" stroke="black" d="M-17.1415,281.022C-22.2895,205.388 -22.4901,-83.9902 -17.7432,-176.281"/>
<polygon fill="black" stroke="black" points="-21.2215,-176.754 -17.1398,-186.531 -14.2336,-176.343 -21.2215,-176.754"/>
</g>
<!-- They&#39;re Only Chasing Safety&#45;&gt;Julio -->
<g id="edge12" class="edge"><title>They&#39;re Only Chasing Safety&#45;&gt;Julio</title>
<path fill="none" stroke="black" d="M-86.3568,299.673C-86.3655,299.639 -86.3731,299.605 -86.3796,299.571"/>
<polygon fill="black" stroke="black" points="-88.2865,309.893 -86.3959,299.467 -81.372,308.797 -88.2865,309.893"/>
</g>
<!-- Meme -->
<g id="node8" class="node"><title>Meme</title>
<polygon fill="#f1f116" stroke="black" points="84.591,281.258 34.591,281.258 30.591,285.258 30.591,317.258 80.591,317.258 84.591,313.258 84.591,281.258"/>
<polyline fill="none" stroke="black" points="80.591,285.258 30.591,285.258 "/>
<polyline fill="none" stroke="black" points="80.591,285.258 80.591,317.258 "/>
<polyline fill="none" stroke="black" points="80.591,285.258 84.591,281.258 "/>
<text text-anchor="middle" x="57.591" y="302.958" font-family="Times New Roman,serif" font-size="14.00">Meme</text>
</g>
<!-- They&#39;re Only Chasing Safety&#45;&gt;Meme -->
<g id="edge13" class="edge"><title>They&#39;re Only Chasing Safety&#45;&gt;Meme</title>
<path fill="none" stroke="black" d="M57.5388,298.843C57.5475,298.877 57.555,298.911 57.5616,298.945"/>
<polygon fill="black" stroke="black" points="59.4685,288.622 57.5779,299.049 52.554,289.719 59.4685,288.622"/>
</g>
<!-- 2012&#45;&gt;2004 -->
<g id="edge14" class="edge"><title>2012&#45;&gt;2004</title>
<path fill="none" stroke="black" d="M30.3709,-198.174C27.9517,-198.072 25.4761,-198.013 22.9916,-197.997"/>
<polygon fill="black" stroke="black" points="22.7875,-194.5 12.8496,-198.172 22.9087,-201.499 22.7875,-194.5"/>
</g>
<!-- 2012&#45;&gt;Meme -->
<g id="edge16" class="edge"><title>2012&#45;&gt;Meme</title>
<path fill="none" stroke="black" d="M60.3235,-186.507C65.4715,-110.872 65.672,178.506 60.9252,270.797"/>
<polygon fill="black" stroke="black" points="64.4035,271.27 60.3218,281.047 57.4156,270.859 64.4035,271.27"/>
</g>
<!-- 2012&#45;&gt;2018 -->
<g id="edge15" class="edge"><title>2012&#45;&gt;2018</title>
<path fill="none" stroke="black" d="M84.8111,-211.311C87.2303,-211.412 89.7059,-211.472 92.1903,-211.488"/>
<polygon fill="black" stroke="black" points="92.3945,-214.985 102.332,-211.312 92.2733,-207.986 92.3945,-214.985"/>
</g>
<!-- Meme&#45;&gt;They&#39;re Only Chasing Safety -->
<g id="edge18" class="edge"><title>Meme&#45;&gt;They&#39;re Only Chasing Safety</title>
<path fill="none" stroke="black" d="M30.3709,305.826C30.2912,305.829 30.2115,305.833 30.1318,305.836"/>
<polygon fill="black" stroke="black" points="40.0265,308.936 29.8923,305.846 39.7418,301.942 40.0265,308.936"/>
</g>
<!-- Meme&#45;&gt;2012 -->
<g id="edge17" class="edge"><title>Meme&#45;&gt;2012</title>
<path fill="none" stroke="black" d="M54.8585,281.022C49.7105,205.388 49.51,-83.9902 54.2568,-176.281"/>
<polygon fill="black" stroke="black" points="50.7785,-176.754 54.8602,-186.531 57.7664,-176.343 50.7785,-176.754"/>
</g>
<!-- 2018&#45;&gt;Erase Me -->
<g id="edge20" class="edge"><title>2018&#45;&gt;Erase Me</title>
<path fill="none" stroke="black" d="M133.078,-186.726C137.174,-138.036 137.414,-3.53833 133.797,55.2005"/>
<polygon fill="black" stroke="black" points="137.283,55.5247 133.077,65.2489 130.301,55.0243 137.283,55.5247"/>
</g>
<!-- 2018&#45;&gt;2012 -->
<g id="edge19" class="edge"><title>2018&#45;&gt;2012</title>
<path fill="none" stroke="black" d="M102.371,-198.174C99.9517,-198.072 97.4761,-198.013 94.9916,-197.997"/>
<polygon fill="black" stroke="black" points="94.7875,-194.5 84.8496,-198.172 94.9087,-201.499 94.7875,-194.5"/>
</g>
<!-- EraseUna&#45;&gt;Erase Me -->
<g id="edge24" class="edge"><title>EraseUna&#45;&gt;Erase Me</title>
<path fill="none" stroke="black" d="M37.034,1.54191C59.0623,17.4696 87.7674,40.5946 107.371,58.2466"/>
<polygon fill="black" stroke="black" points="109.933,55.8474 114.915,65.1979 105.189,60.9951 109.933,55.8474"/>
</g>
</g>
</svg>
